HIERARCHY
ROOT bottle4_body
{
	OFFSET 0.000000 0.000000 0.000000
	CHANNELS 6 Xposition Yposition Zposition Yrotation Xrotation Zrotation
	End Site
	{
		OFFSET 0.000000 0.000000 0.000000
	}
}
MOTION
Frames: 207
Frame Time: 0.008333334
1.734246 4.402894 3.839013 -37.830660 -0.264313 1.417816 
1.734744 4.403303 3.839283 -37.840120 -0.285706 1.420941 
1.735894 4.403507 3.839627 -37.860840 -0.298248 1.402368 
1.736965 4.403779 3.839657 -37.840390 -0.322754 1.389971 
1.737036 4.403904 3.839686 -37.820530 -0.310883 1.449402 
1.736557 4.403761 3.839868 -37.841430 -0.293060 1.410025 
1.735476 4.403514 3.839589 -37.850310 -0.240875 1.423774 
1.734278 4.403308 3.839122 -37.851500 -0.251709 1.425461 
1.733556 4.403199 3.838261 -37.806340 -0.258118 1.453947 
1.733024 4.402996 3.837686 -37.816960 -0.251709 1.433285 
1.732611 4.403034 3.836704 -37.837740 -0.248962 1.431769 
1.732745 4.403048 3.836173 -37.862180 -0.226990 1.431211 
1.733351 4.403212 3.835657 -37.830930 -0.217926 1.465185 
1.733478 4.403063 3.835172 -37.855830 -0.243927 1.433399 
1.733644 4.403215 3.834771 -37.834080 -0.238586 1.467586 
1.733564 4.403104 3.834850 -37.832340 -0.239807 1.465934 
1.733096 4.403170 3.834964 -37.823360 -0.213135 1.469944 
1.732752 4.403244 3.835295 -37.809780 -0.184540 1.462266 
1.732008 4.403029 3.835576 -37.830600 -0.174591 1.464460 
1.730610 4.402854 3.836333 -37.824830 -0.217865 1.461842 
1.729519 4.402922 3.836243 -37.811040 -0.203308 1.490327 
1.729128 4.402893 3.836375 -37.847780 -0.252594 1.476815 
1.728721 4.402874 3.836514 -37.851900 -0.263916 1.486768 
1.728704 4.402908 3.836457 -37.853820 -0.255066 1.482726 
1.729389 4.402788 3.836134 -37.838260 -0.243073 1.460689 
1.729884 4.402799 3.835713 -37.841830 -0.234192 1.462783 
1.730142 4.402900 3.835327 -37.848510 -0.234711 1.456867 
1.730548 4.403035 3.834950 -37.853120 -0.251862 1.457089 
1.730615 4.403059 3.834243 -37.838530 -0.287598 1.464463 
1.730161 4.403079 3.833653 -37.844180 -0.285400 1.482531 
1.729821 4.403243 3.833430 -37.850710 -0.269775 1.462005 
1.729515 4.403044 3.833285 -37.846950 -0.261383 1.490655 
1.729446 4.402964 3.833227 -37.830350 -0.225342 1.487085 
1.729615 4.402960 3.833083 -37.833440 -0.241119 1.492373 
1.730022 4.403131 3.833224 -37.801970 -0.236145 1.510309 
1.730108 4.403200 3.833410 -37.786190 -0.227448 1.514322 
1.730214 4.403069 3.833749 -37.821840 -0.244721 1.476550 
1.730278 4.403260 3.834285 -37.861600 -0.325592 1.472252 
1.729766 4.403197 3.834642 -37.909360 -0.243622 1.472420 
1.730079 4.403249 3.834567 -37.842250 -0.238556 1.483033 
1.729795 4.403062 3.835051 -37.843720 -0.229218 1.473303 
1.729624 4.403024 3.835018 -37.837710 -0.210754 1.480425 
1.729668 4.403063 3.834748 -37.798830 -0.191193 1.507086 
1.729732 4.402971 3.834656 -37.846280 -0.180359 1.457208 
1.729840 4.403071 3.834394 -37.843110 -0.161743 1.447443 
1.729945 4.403058 3.834110 -37.853880 -0.202148 1.459436 
1.730066 4.403100 3.833771 -37.851560 -0.219513 1.456964 
1.730110 4.403236 3.833277 -37.819850 -0.219421 1.509909 
1.730098 4.403259 3.833020 -37.818480 -0.210877 1.510867 
1.730000 4.403011 3.833224 -37.850010 -0.239594 1.481539 
1.730034 4.403076 3.833081 -37.813660 -0.225220 1.503137 
1.729935 4.403061 3.833195 -37.808810 -0.216309 1.506814 
1.729919 4.403005 3.833383 -37.784240 -0.186829 1.503476 
1.730001 4.403043 3.833500 -37.799800 -0.195526 1.495297 
1.729903 4.402927 3.833898 -37.829590 -0.205475 1.459150 
1.729884 4.403043 3.834131 -37.845610 -0.212311 1.467833 
1.729854 4.403173 3.834307 -37.873660 -0.227783 1.476092 
1.729847 4.403197 3.834435 -37.871860 -0.226227 1.479313 
1.729857 4.403232 3.834212 -37.839360 -0.219238 1.507987 
1.729851 4.403156 3.834281 -37.824770 -0.212463 1.500614 
1.729798 4.402951 3.834397 -37.840270 -0.209351 1.467958 
1.729954 4.403106 3.834044 -37.790920 -0.195709 1.507086 
1.729864 4.402866 3.833800 -37.820430 -0.196106 1.471801 
1.729784 4.402905 3.833651 -37.834260 -0.195343 1.463973 
1.729747 4.402894 3.833632 -37.869200 -0.231079 1.453666 
1.729848 4.403218 3.833151 -37.817990 -0.201416 1.507099 
1.729896 4.403149 3.833038 -37.834230 -0.210999 1.523747 
1.729898 4.403183 3.832880 -37.827240 -0.197418 1.524611 
1.729848 4.402904 3.832993 -37.861240 -0.215332 1.492385 
1.729786 4.402925 3.833084 -37.831600 -0.239197 1.444769 
1.729923 4.402800 3.833046 -37.846590 -0.206604 1.483760 
1.730062 4.402763 3.833079 -37.832490 -0.196991 1.470161 
1.730162 4.402923 3.833012 -37.791200 -0.196106 1.497228 
1.729935 4.402928 3.833170 -37.844880 -0.241150 1.480699 
1.730060 4.402998 3.833031 -37.858830 -0.243378 1.471913 
1.730082 4.403022 3.832854 -37.865720 -0.236969 1.481962 
1.730088 4.403013 3.832782 -37.853330 -0.236237 1.474029 
1.730189 4.402988 3.832571 -37.851680 -0.229553 1.472536 
1.730422 4.403001 3.832218 -37.805420 -0.233063 1.502947 
1.730573 4.402908 3.832122 -37.786830 -0.215637 1.494734 
1.730860 4.402771 3.832355 -37.818420 -0.232513 1.457410 
1.731170 4.402797 3.832641 -37.823880 -0.238953 1.450409 
1.731485 4.402874 3.832991 -37.839940 -0.260101 1.444470 
1.731831 4.402944 3.833548 -37.860750 -0.279114 1.445255 
1.732244 4.403130 3.834224 -37.824070 -0.273590 1.492119 
1.732325 4.403217 3.835211 -37.837890 -0.226105 1.481970 
1.732000 4.403162 3.836011 -37.833560 -0.231659 1.482760 
1.731278 4.403031 3.836882 -37.784390 -0.226440 1.488809 
1.730119 4.402603 3.837631 -37.796420 -0.177765 1.430683 
1.728959 4.402679 3.838080 -37.828980 -0.231232 1.459691 
1.728031 4.402406 3.838615 -37.838590 -0.198181 1.452931 
1.726869 4.402050 3.838844 -37.855650 -0.207581 1.492169 
1.724774 4.401576 3.838868 -37.879940 -0.207306 1.527470 
1.722007 4.401213 3.838631 -37.854250 -0.203888 1.592175 
1.719388 4.401092 3.837908 -37.835080 -0.195618 1.638143 
1.717607 4.400836 3.837765 -37.855900 -0.153076 1.632505 
1.716770 4.401285 3.837872 -37.851380 -0.190949 1.658306 
1.717330 4.401338 3.838113 -37.858310 -0.193268 1.637008 
1.719104 4.401502 3.838337 -37.822450 -0.201996 1.612762 
1.721389 4.401401 3.838382 -37.850010 -0.138428 1.554008 
1.723043 4.401711 3.838293 -37.911220 -0.259918 1.546388 
1.723415 4.401753 3.838178 -37.906590 -0.252960 1.551603 
1.723437 4.401802 3.838450 -37.921810 -0.278320 1.550242 
1.722561 4.401582 3.838645 -37.884770 -0.235931 1.553284 
1.721261 4.401487 3.838230 -37.856140 -0.189728 1.591539 
1.720417 4.401321 3.837850 -37.854860 -0.214203 1.609117 
1.720138 4.401253 3.837838 -37.846620 -0.184296 1.591308 
1.720384 4.401264 3.837801 -37.874880 -0.220367 1.603383 
1.720818 4.401256 3.837513 -37.880650 -0.201935 1.586232 
1.721082 4.401421 3.837047 -37.877320 -0.230499 1.599317 
1.721048 4.401416 3.836731 -37.888730 -0.232666 1.599401 
1.720825 4.401483 3.836232 -37.909940 -0.249451 1.626687 
1.720885 4.401465 3.836154 -37.882600 -0.245483 1.615430 
1.720747 4.401474 3.836012 -37.869540 -0.232239 1.613080 
1.720754 4.401337 3.835933 -37.873050 -0.227600 1.599946 
1.721104 4.401296 3.835804 -37.866910 -0.231110 1.606854 
1.721598 4.401416 3.835795 -37.890870 -0.249542 1.595220 
1.722259 4.401620 3.835913 -37.891360 -0.232086 1.590720 
1.722991 4.401876 3.836133 -37.880680 -0.256287 1.577018 
1.723662 4.401903 3.836430 -37.887600 -0.265381 1.570740 
1.723996 4.402159 3.836555 -37.938290 -0.248047 1.548424 
1.723762 4.402069 3.836931 -37.905490 -0.239014 1.549737 
1.723279 4.401968 3.837002 -37.893400 -0.241455 1.564324 
1.722942 4.401872 3.837160 -37.889010 -0.233002 1.561727 
1.722690 4.401825 3.837241 -37.875000 -0.232697 1.560760 
1.722677 4.401819 3.837323 -37.876430 -0.229950 1.556147 
1.722863 4.401947 3.837029 -37.892240 -0.239807 1.561173 
1.723342 4.402069 3.836903 -37.887270 -0.245758 1.559344 
1.723818 4.402267 3.836596 -37.903690 -0.234100 1.556730 
1.724337 4.402240 3.836137 -37.895540 -0.247345 1.543791 
1.724624 4.402489 3.835960 -37.903530 -0.270691 1.533828 
1.724969 4.402358 3.835704 -37.879240 -0.235260 1.535424 
1.725461 4.402374 3.835635 -37.889130 -0.259125 1.486789 
1.725496 4.402316 3.835532 -37.892330 -0.252228 1.488969 
1.725377 4.402374 3.835589 -37.883000 -0.237579 1.503628 
1.725366 4.402378 3.835626 -37.877870 -0.232513 1.516501 
1.725164 4.402329 3.835619 -37.889370 -0.255615 1.515293 
1.724911 4.402536 3.835683 -37.887940 -0.223816 1.526646 
1.724751 4.402573 3.835778 -37.875850 -0.202728 1.544437 
1.724659 4.402549 3.835873 -37.905210 -0.229370 1.527728 
1.724714 4.402555 3.835930 -37.906460 -0.217194 1.512410 
1.724769 4.402623 3.835934 -37.910340 -0.261108 1.536144 
1.725158 4.402437 3.835987 -37.884120 -0.219269 1.500225 
1.725300 4.402515 3.835966 -37.889950 -0.218994 1.511243 
1.725139 4.402492 3.835940 -37.888790 -0.213715 1.503970 
1.725050 4.402583 3.835911 -37.899080 -0.213959 1.527364 
1.724970 4.402838 3.835605 -37.882970 -0.142365 1.475802 
1.725096 4.402721 3.835665 -37.901180 -0.251923 1.533207 
1.725202 4.402803 3.835586 -37.900510 -0.258209 1.528122 
1.725457 4.402769 3.835609 -37.892030 -0.248077 1.517347 
1.725732 4.402443 3.835575 -37.876920 -0.175171 1.498176 
1.725749 4.402527 3.835706 -37.894650 -0.214294 1.503119 
1.725695 4.402596 3.835988 -37.881560 -0.218170 1.504642 
1.725634 4.402584 3.836258 -37.881350 -0.213287 1.481192 
1.725685 4.402619 3.836587 -37.875850 -0.232971 1.484397 
1.725706 4.402669 3.837006 -37.877690 -0.218048 1.478774 
1.725381 4.402928 3.837393 -37.926210 -0.291779 1.506270 
1.725345 4.403051 3.837739 -37.930480 -0.319550 1.520913 
1.725337 4.402896 3.838128 -37.935970 -0.278320 1.498721 
1.725175 4.402840 3.838312 -37.931880 -0.275635 1.500924 
1.725061 4.402725 3.838340 -37.923740 -0.236755 1.493151 
1.724984 4.402687 3.838249 -37.922580 -0.237122 1.496720 
1.725040 4.402616 3.838225 -37.907560 -0.209229 1.485966 
1.725395 4.402689 3.837831 -37.929350 -0.277741 1.500095 
1.726640 4.402515 3.836521 -38.016240 -0.213623 1.492620 
1.729246 4.402347 3.832964 -38.333130 -0.262177 1.525321 
1.735307 4.402189 3.824488 -39.092620 -0.429749 1.572106 
1.745395 4.402326 3.815001 -40.036650 -0.595337 1.548447 
1.757520 4.402070 3.804970 -41.138730 -0.669434 1.558859 
1.768430 4.401629 3.794412 -42.267580 -0.673737 1.648335 
1.777957 4.400469 3.786732 -43.420620 -0.583221 1.666818 
1.786446 4.399352 3.778423 -44.722200 -0.535370 1.820234 
1.794926 4.398576 3.771672 -46.146850 -0.343597 1.973487 
1.803529 4.397717 3.765480 -47.758940 -0.229828 2.083097 
1.812258 4.396942 3.758933 -49.620880 -0.176849 2.147916 
1.821718 4.396213 3.752807 -51.506290 -0.197723 2.104555 
1.830748 4.396025 3.746984 -53.428010 -0.131500 2.154536 
1.838703 4.395543 3.743050 -55.594390 -0.118042 2.300938 
1.847094 4.394933 3.738613 -57.764040 -0.118195 2.348614 
1.854673 4.394766 3.734481 -59.940340 -0.019928 2.459475 
1.861049 4.394858 3.730391 -62.294740 -0.098206 2.663621 
1.866485 4.394663 3.728486 -64.432400 0.000193 2.735935 
1.871157 4.394385 3.726465 -66.534790 0.018854 2.803892 
1.874433 4.394219 3.726316 -68.727290 0.111349 2.826400 
1.876127 4.394391 3.726452 -70.867220 0.222414 2.962950 
1.878391 4.393895 3.727237 -72.919250 0.198150 2.987529 
1.878727 4.393852 3.727684 -74.912600 0.391299 3.105404 
1.880475 4.393871 3.727636 -76.722230 0.397792 3.138780 
1.880120 4.394063 3.726375 -78.524690 0.441697 3.244066 
1.880415 4.394141 3.723971 -80.071620 0.504457 3.336309 
1.881484 4.393938 3.720125 -81.414550 0.603952 3.410078 
1.880920 4.393612 3.716231 -82.769350 0.645581 3.382874 
1.882014 4.393597 3.710939 -83.911930 0.576910 3.390040 
1.883559 4.393813 3.705241 -84.813320 0.629833 3.495029 
1.884390 4.393204 3.699473 -85.694430 0.674133 3.490307 
1.886157 4.393066 3.694099 -86.408390 0.727857 3.521581 
1.887305 4.392463 3.688618 -87.128780 0.778480 3.544845 
1.887985 4.392716 3.683237 -87.808380 0.757082 3.613403 
1.888260 4.391766 3.678185 -88.485660 0.739784 3.489641 
1.889816 4.391285 3.672752 -89.044770 0.820340 3.496249 
1.890999 4.391073 3.667234 -89.605650 0.844043 3.586509 
1.892636 4.391232 3.661850 -90.063420 0.886767 3.666301 
1.895099 4.391166 3.656385 -90.482940 0.853370 3.665064 
1.898117 4.390666 3.651565 -90.850860 0.908540 3.608952 
1.901302 4.390316 3.646654 -91.211980 0.937433 3.593046 
1.904543 4.389859 3.642599 -91.612730 0.968606 3.549290 
1.908391 4.389759 3.639238 -91.931820 1.004369 3.593956 
